<svg width="9" height="8" viewBox="0 0 9 8" fill="none" xmlns="http://www.w3.org/2000/svg">
<path d="M6.77405 3.27124C6.77405 3.97018 6.54716 4.61582 6.16495 5.13964L8.09274 7.06895C8.28308 7.2593 8.28308 7.56841 8.09274 7.75876C7.9024 7.9491 7.59328 7.9491 7.40294 7.75876L5.47515 5.82944C4.95133 6.21317 4.30569 6.43854 3.60675 6.43854C1.85712 6.43854 0.439453 5.02087 0.439453 3.27124C0.439453 1.52161 1.85712 0.103943 3.60675 0.103943C5.35638 0.103943 6.77405 1.52161 6.77405 3.27124ZM3.60675 5.46399C3.89471 5.46399 4.17984 5.40727 4.44588 5.29707C4.71191 5.18688 4.95364 5.02536 5.15726 4.82175C5.36087 4.61813 5.52239 4.3764 5.63258 4.11037C5.74278 3.84433 5.7995 3.5592 5.7995 3.27124C5.7995 2.98329 5.74278 2.69815 5.63258 2.43211C5.52239 2.16608 5.36087 1.92435 5.15726 1.72074C4.95364 1.51712 4.71191 1.3556 4.44588 1.24541C4.17984 1.13521 3.89471 1.0785 3.60675 1.0785C3.3188 1.0785 3.03366 1.13521 2.76762 1.24541C2.50159 1.3556 2.25986 1.51712 2.05625 1.72074C1.85263 1.92435 1.69111 2.16608 1.58092 2.43211C1.47072 2.69815 1.41401 2.98329 1.41401 3.27124C1.41401 3.5592 1.47072 3.84433 1.58092 4.11037C1.69111 4.3764 1.85263 4.61813 2.05625 4.82175C2.25986 5.02536 2.50159 5.18688 2.76762 5.29707C3.03366 5.40727 3.3188 5.46399 3.60675 5.46399Z" fill="white"/>
</svg>
